<svg id="Layer_1" style="enable-background:new 0 0 512 512;" version="1.1" viewBox="0 0 512 512" xml:space="preserve" xmlns="http://www.w3.org/2000/svg" xmlns:xlink="http://www.w3.org/1999/xlink"><path d="M213.6,132.5h23.7V80.7c-0.1-12.8,5.2-25.1,14.6-33.9c17.6-16.6,44.9-17,63-0.9L315,46l146.6,132.2  c11.9,10.7,12.9,29,2.2,41c-0.9,1-1.8,1.9-2.8,2.7L317,345c-8.7,8.9-20.6,13.9-33,13.8c-11.9,0-23.3-4.5-32-12.6  c-9.5-8.8-14.9-21.2-14.8-34.1v-62.7h-6.1c-25.9,0-50.7,11.7-70,33.1c-18.9,20.9-29.7,48.4-29.7,75.5c0,38.9,21.6,76.1,53.6,92.6  c3.5,1.8,6.2,5.1,7.3,8.9c0.4,1.3,0.6,2.6,0.6,4l0,0l0,0l0,0l0,0l0,0c0,8-6.6,14.5-14.6,14.5c-1.4,0-2.8-0.2-4.2-0.6  c-37.1-8.6-70.9-30.5-95.2-61.8c-24.6-31.6-38-70.4-38.1-110.4C40.8,210,118.3,132.5,213.6,132.5z M266.3,312.1  c0,9.7,7.8,17.6,17.5,17.6c0.1,0,0.1,0,0.2,0c5,0,9.7-2.1,13-5.9l145.1-124.2L295.6,67.5c-3.2-2.9-7.3-4.5-11.6-4.5  c-9.7-0.1-17.6,7.8-17.7,17.5c0,0,0,0.1,0,0.1V312.1z M101.8,397.8c3.4,4.4,7,8.5,10.9,12.5c-6.8-16.6-10.3-34.3-10.4-52.2  c0-34.2,13.6-68.8,37.2-94.9c24.9-27.5,57.4-42.6,91.6-42.6h6.1v-58.9h-23.7c-79.2,0-143.7,64.5-143.7,143.7  C70,338.8,81.2,371.3,101.8,397.8L101.8,397.8z"/></svg>